<svg xmlns="http://www.w3.org/2000/svg" xmlns:xlink="http://www.w3.org/1999/xlink" width="1920" zoomAndPan="magnify" viewBox="0 0 1440 809.999993" height="1080" preserveAspectRatio="xMidYMid meet" version="1.0"><defs><g/><clipPath id="id1"><path d="M 300.484375 405 L 1358.734375 405 L 1358.734375 590.25 L 300.484375 590.25 Z M 300.484375 405 " clip-rule="nonzero"/></clipPath><clipPath id="id2"><path d="M 81 405 L 266.25 405 L 266.25 590.25 L 81 590.25 Z M 81 405 " clip-rule="nonzero"/></clipPath><clipPath id="id3"><path d="M 1173.886719 189.832031 L 1359.136719 189.832031 L 1359.136719 375.082031 L 1173.886719 375.082031 Z M 1173.886719 189.832031 " clip-rule="nonzero"/></clipPath><clipPath id="id4"><path d="M 81 189.832031 L 1143.75 189.832031 L 1143.75 375.082031 L 81 375.082031 Z M 81 189.832031 " clip-rule="nonzero"/></clipPath></defs><rect x="-144" width="1728" fill="#ffffff" y="-80.999999" height="971.999992" fill-opacity="1"/><rect x="-144" width="1728" fill="#eab2bb" y="-80.999999" height="971.999992" fill-opacity="1"/><rect x="-144" width="1728" fill="#ffffff" y="-80.999999" height="971.999992" fill-opacity="1"/><rect x="-144" width="1728" fill="#eab2bb" y="-80.999999" height="971.999992" fill-opacity="1"/><g clip-path="url(#id1)"><path fill="#1b548d" d="M 1266.191406 405 L 393.023438 405 L 300.492188 497.625 L 393.023438 590.25 L 1266.191406 590.25 L 1358.726562 497.625 L 1266.191406 405 " fill-opacity="1" fill-rule="nonzero"/></g><g clip-path="url(#id2)"><path fill="#3c6ca8" d="M 173.625 405 L 200.210938 433.445312 L 239.121094 432.128906 L 237.804688 471.039062 L 266.25 497.625 L 237.804688 524.210938 L 239.121094 563.121094 L 200.210938 561.804688 L 173.625 590.25 L 147.039062 561.804688 L 108.128906 563.121094 L 109.445312 524.210938 L 81 497.625 L 109.445312 471.039062 L 108.128906 432.128906 L 147.039062 433.445312 L 173.625 405 " fill-opacity="1" fill-rule="nonzero"/></g><g clip-path="url(#id3)"><path fill="#b78fd6" d="M 1266.511719 189.832031 L 1279.550781 200.121094 L 1295.132812 194.367188 L 1304.355469 208.179688 L 1320.953125 207.523438 L 1325.457031 223.511719 L 1341.445312 228.015625 L 1340.789062 244.613281 L 1354.601562 253.835938 L 1348.847656 269.417969 L 1359.136719 282.457031 L 1348.847656 295.5 L 1354.601562 311.078125 L 1340.789062 320.304688 L 1341.445312 336.902344 L 1325.457031 341.402344 L 1320.953125 357.390625 L 1304.355469 356.734375 L 1295.132812 370.550781 L 1279.550781 364.792969 L 1266.511719 375.082031 L 1253.46875 364.792969 L 1237.886719 370.550781 L 1228.664062 356.734375 L 1212.066406 357.390625 L 1207.566406 341.402344 L 1191.574219 336.902344 L 1192.234375 320.304688 L 1178.417969 311.078125 L 1184.175781 295.5 L 1173.886719 282.457031 L 1184.175781 269.417969 L 1178.417969 253.835938 L 1192.234375 244.613281 L 1191.574219 228.015625 L 1207.566406 223.511719 L 1212.066406 207.523438 L 1228.664062 208.179688 L 1237.886719 194.367188 L 1253.46875 200.121094 L 1266.511719 189.832031 " fill-opacity="1" fill-rule="nonzero"/></g><g clip-path="url(#id4)"><path fill="#fffcf6" d="M 1051.203125 189.832031 L 173.546875 189.832031 L 81.007812 282.457031 L 173.546875 375.082031 L 1051.203125 375.082031 L 1143.742188 282.457031 L 1051.203125 189.832031 " fill-opacity="1" fill-rule="nonzero"/></g><g fill="#3c6ca8" fill-opacity="1"><g transform="translate(495.737998, 313.514315)"><g><path d="M 43.078125 -45.140625 C 43.785156 -46.015625 44.140625 -47.050781 44.140625 -48.25 C 44.140625 -49.457031 43.785156 -50.546875 43.078125 -51.515625 C 42.378906 -52.484375 41.363281 -52.96875 40.03125 -52.96875 L 31.609375 -52.96875 L 31.609375 -43.84375 L 40.03125 -43.84375 C 41.363281 -43.84375 42.378906 -44.273438 43.078125 -45.140625 Z M 31.609375 -27.09375 L 31.609375 -17.25 L 40.9375 -17.25 C 42.46875 -17.25 43.617188 -17.765625 44.390625 -18.796875 C 45.160156 -19.835938 45.546875 -20.992188 45.546875 -22.265625 L 45.546875 -22.375 C 45.546875 -23.644531 45.128906 -24.75 44.296875 -25.6875 C 43.460938 -26.625 42.34375 -27.09375 40.9375 -27.09375 Z M 43.546875 0 L 9.234375 0 C 8.492188 0 7.851562 -0.265625 7.3125 -0.796875 C 6.78125 -1.335938 6.515625 -1.972656 6.515625 -2.703125 L 6.515625 -67.515625 C 6.515625 -68.253906 6.78125 -68.890625 7.3125 -69.421875 C 7.851562 -69.960938 8.492188 -70.234375 9.234375 -70.234375 L 42.546875 -70.234375 C 52.035156 -70.234375 59.035156 -68.507812 63.546875 -65.0625 C 68.066406 -61.613281 70.328125 -56.414062 70.328125 -49.46875 L 70.328125 -49.15625 C 70.328125 -46.28125 69.488281 -43.722656 67.8125 -41.484375 C 66.144531 -39.242188 64.304688 -37.625 62.296875 -36.625 C 64.972656 -35.550781 67.226562 -33.660156 69.0625 -30.953125 C 70.90625 -28.242188 71.828125 -25.285156 71.828125 -22.078125 C 71.828125 -7.359375 62.398438 0 43.546875 0 Z M 43.546875 0 "/></g></g></g><g fill="#3c6ca8" fill-opacity="1"><g transform="translate(571.583141, 313.514315)"><g><path d="M 30.59375 -19.5625 L 61.5 -19.5625 C 62.238281 -19.5625 62.875 -19.289062 63.40625 -18.75 C 63.9375 -18.21875 64.203125 -17.585938 64.203125 -16.859375 L 64.203125 -2.703125 C 64.203125 -1.972656 63.9375 -1.335938 63.40625 -0.796875 C 62.875 -0.265625 62.238281 0 61.5 0 L 9.234375 0 C 8.492188 0 7.851562 -0.265625 7.3125 -0.796875 C 6.78125 -1.335938 6.515625 -1.972656 6.515625 -2.703125 L 6.515625 -67.515625 C 6.515625 -68.253906 6.78125 -68.890625 7.3125 -69.421875 C 7.851562 -69.960938 8.492188 -70.234375 9.234375 -70.234375 L 60.703125 -70.234375 C 61.429688 -70.234375 62.0625 -69.960938 62.59375 -69.421875 C 63.132812 -68.890625 63.40625 -68.253906 63.40625 -67.515625 L 63.40625 -53.375 C 63.40625 -52.632812 63.132812 -52 62.59375 -51.46875 C 62.0625 -50.9375 61.429688 -50.671875 60.703125 -50.671875 L 30.59375 -50.671875 L 30.59375 -44.34375 L 58.484375 -44.34375 C 59.222656 -44.34375 59.859375 -44.070312 60.390625 -43.53125 C 60.929688 -43 61.203125 -42.367188 61.203125 -41.640625 L 61.203125 -28.59375 C 61.203125 -27.851562 60.929688 -27.21875 60.390625 -26.6875 C 59.859375 -26.15625 59.222656 -25.890625 58.484375 -25.890625 L 30.59375 -25.890625 Z M 30.59375 -19.5625 "/></g></g></g><g fill="#3c6ca8" fill-opacity="1"><g transform="translate(641.30851, 313.514315)"><g><path d="M 62.8125 -70.234375 L 78.65625 -70.234375 C 79.394531 -70.234375 80.03125 -69.960938 80.5625 -69.421875 C 81.09375 -68.890625 81.359375 -68.253906 81.359375 -67.515625 L 81.359375 -2.703125 C 81.359375 -1.972656 81.09375 -1.335938 80.5625 -0.796875 C 80.03125 -0.265625 79.394531 0 78.65625 0 L 60.5 0 C 59.757812 0 59.117188 -0.265625 58.578125 -0.796875 C 58.046875 -1.335938 57.78125 -1.972656 57.78125 -2.703125 L 57.78125 -30.203125 L 51.171875 -19.359375 C 50.097656 -17.691406 48.859375 -16.859375 47.453125 -16.859375 L 40.4375 -16.859375 C 39.03125 -16.859375 37.789062 -17.691406 36.71875 -19.359375 L 30.09375 -30.203125 L 30.09375 -2.703125 C 30.09375 -1.972656 29.828125 -1.335938 29.296875 -0.796875 C 28.765625 -0.265625 28.128906 0 27.390625 0 L 9.234375 0 C 8.492188 0 7.851562 -0.265625 7.3125 -0.796875 C 6.78125 -1.335938 6.515625 -1.972656 6.515625 -2.703125 L 6.515625 -67.515625 C 6.515625 -68.253906 6.78125 -68.890625 7.3125 -69.421875 C 7.851562 -69.960938 8.492188 -70.234375 9.234375 -70.234375 L 25.078125 -70.234375 C 26.953125 -70.234375 28.390625 -69.328125 29.390625 -67.515625 L 43.9375 -43.4375 L 58.484375 -67.515625 C 59.492188 -69.328125 60.9375 -70.234375 62.8125 -70.234375 Z M 62.8125 -70.234375 "/></g></g></g><g fill="#fffcf6" fill-opacity="1"><g transform="translate(482.980147, 478.998212)"><g><path d="M 6.109375 -46.4375 L 25.875 -46.4375 C 32.238281 -46.4375 37.210938 -45.066406 40.796875 -42.328125 C 44.378906 -39.585938 46.171875 -35.539062 46.171875 -30.1875 C 46.171875 -24.832031 44.390625 -20.875 40.828125 -18.3125 C 37.273438 -15.75 32.289062 -14.46875 25.875 -14.46875 L 21.5625 -14.46875 L 21.5625 -1.796875 C 21.5625 -1.304688 21.382812 -0.882812 21.03125 -0.53125 C 20.675781 -0.175781 20.253906 0 19.765625 0 L 6.109375 0 C 5.617188 0 5.195312 -0.175781 4.84375 -0.53125 C 4.488281 -0.882812 4.3125 -1.304688 4.3125 -1.796875 L 4.3125 -44.65625 C 4.3125 -45.132812 4.488281 -45.550781 4.84375 -45.90625 C 5.195312 -46.257812 5.617188 -46.4375 6.109375 -46.4375 Z M 21.234375 -34.09375 L 21.234375 -26.734375 L 25.875 -26.734375 C 26.664062 -26.734375 27.367188 -27.03125 27.984375 -27.625 C 28.609375 -28.226562 28.921875 -29.082031 28.921875 -30.1875 C 28.921875 -31.289062 28.675781 -32.21875 28.1875 -32.96875 C 27.707031 -33.71875 26.9375 -34.09375 25.875 -34.09375 Z M 21.234375 -34.09375 "/></g></g></g><g fill="#fffcf6" fill-opacity="1"><g transform="translate(531.134399, 478.998212)"><g><path d="M 33.4375 -46.4375 L 46.4375 -46.4375 C 46.925781 -46.4375 47.347656 -46.257812 47.703125 -45.90625 C 48.054688 -45.550781 48.234375 -45.132812 48.234375 -44.65625 L 48.234375 -1.796875 C 48.234375 -1.304688 48.054688 -0.882812 47.703125 -0.53125 C 47.347656 -0.175781 46.925781 0 46.4375 0 L 33.4375 0 C 32.945312 0 32.523438 -0.175781 32.171875 -0.53125 C 31.816406 -0.882812 31.640625 -1.304688 31.640625 -1.796875 L 31.640625 -16.125 L 20.890625 -16.125 L 20.890625 -1.796875 C 20.890625 -1.304688 20.710938 -0.882812 20.359375 -0.53125 C 20.015625 -0.175781 19.597656 0 19.109375 0 L 6.109375 0 C 5.617188 0 5.195312 -0.164062 4.84375 -0.5 C 4.488281 -0.832031 4.3125 -1.265625 4.3125 -1.796875 L 4.3125 -44.65625 C 4.3125 -45.132812 4.488281 -45.550781 4.84375 -45.90625 C 5.195312 -46.257812 5.617188 -46.4375 6.109375 -46.4375 L 19.109375 -46.4375 C 19.597656 -46.4375 20.015625 -46.257812 20.359375 -45.90625 C 20.710938 -45.550781 20.890625 -45.132812 20.890625 -44.65625 L 20.890625 -30.71875 L 31.640625 -30.71875 L 31.640625 -44.65625 C 31.640625 -45.132812 31.816406 -45.550781 32.171875 -45.90625 C 32.523438 -46.257812 32.945312 -46.4375 33.4375 -46.4375 Z M 33.4375 -46.4375 "/></g></g></g><g fill="#fffcf6" fill-opacity="1"><g transform="translate(583.666303, 478.998212)"><g><path d="M 19.640625 0 L 6.109375 0 C 5.617188 0 5.195312 -0.175781 4.84375 -0.53125 C 4.488281 -0.882812 4.3125 -1.304688 4.3125 -1.796875 L 4.3125 -44.65625 C 4.3125 -45.132812 4.488281 -45.550781 4.84375 -45.90625 C 5.195312 -46.257812 5.617188 -46.4375 6.109375 -46.4375 L 19.640625 -46.4375 C 20.128906 -46.4375 20.546875 -46.257812 20.890625 -45.90625 C 21.242188 -45.550781 21.421875 -45.132812 21.421875 -44.65625 L 21.421875 -1.796875 C 21.421875 -1.304688 21.242188 -0.882812 20.890625 -0.53125 C 20.546875 -0.175781 20.128906 0 19.640625 0 Z M 19.640625 0 "/></g></g></g><g fill="#fffcf6" fill-opacity="1"><g transform="translate(609.401626, 478.998212)"><g><path d="M 21.15625 -13.59375 L 39.546875 -13.59375 C 40.023438 -13.59375 40.441406 -13.414062 40.796875 -13.0625 C 41.148438 -12.707031 41.328125 -12.289062 41.328125 -11.8125 L 41.328125 -1.796875 C 41.328125 -1.304688 41.148438 -0.882812 40.796875 -0.53125 C 40.441406 -0.175781 40.023438 0 39.546875 0 L 6.109375 0 C 5.617188 0 5.195312 -0.175781 4.84375 -0.53125 C 4.488281 -0.882812 4.3125 -1.304688 4.3125 -1.796875 L 4.3125 -44.65625 C 4.3125 -45.132812 4.488281 -45.550781 4.84375 -45.90625 C 5.195312 -46.257812 5.617188 -46.4375 6.109375 -46.4375 L 19.375 -46.4375 C 19.863281 -46.4375 20.28125 -46.257812 20.625 -45.90625 C 20.976562 -45.550781 21.15625 -45.132812 21.15625 -44.65625 Z M 21.15625 -13.59375 "/></g></g></g><g fill="#fffcf6" fill-opacity="1"><g transform="translate(652.38228, 478.998212)"><g><path d="M 9.046875 -42.1875 C 13.097656 -45.46875 18.460938 -47.109375 25.140625 -47.109375 C 31.816406 -47.109375 37.175781 -45.457031 41.21875 -42.15625 C 45.269531 -38.863281 47.296875 -34.234375 47.296875 -28.265625 L 47.296875 -17.90625 C 47.296875 -11.851562 45.296875 -7.242188 41.296875 -4.078125 C 37.296875 -0.921875 31.910156 0.65625 25.140625 0.65625 C 18.378906 0.65625 12.992188 -0.921875 8.984375 -4.078125 C 4.984375 -7.242188 2.984375 -11.851562 2.984375 -17.90625 L 2.984375 -28.265625 C 2.984375 -34.273438 5.003906 -38.914062 9.046875 -42.1875 Z M 21.5625 -13.59375 C 22.445312 -12.71875 23.640625 -12.28125 25.140625 -12.28125 C 26.648438 -12.28125 27.84375 -12.71875 28.71875 -13.59375 C 29.601562 -14.476562 30.046875 -15.828125 30.046875 -17.640625 L 30.046875 -28.796875 C 30.046875 -30.566406 29.601562 -31.90625 28.71875 -32.8125 C 27.84375 -33.71875 26.648438 -34.171875 25.140625 -34.171875 C 23.640625 -34.171875 22.445312 -33.71875 21.5625 -32.8125 C 20.675781 -31.90625 20.234375 -30.566406 20.234375 -28.796875 L 20.234375 -17.640625 C 20.234375 -15.828125 20.675781 -14.476562 21.5625 -13.59375 Z M 21.5625 -13.59375 "/></g></g></g><g fill="#fffcf6" fill-opacity="1"><g transform="translate(702.659045, 478.998212)"><g><path d="M 41.53125 -46.4375 L 52.015625 -46.4375 C 52.503906 -46.4375 52.925781 -46.257812 53.28125 -45.90625 C 53.632812 -45.550781 53.8125 -45.132812 53.8125 -44.65625 L 53.8125 -1.796875 C 53.8125 -1.304688 53.632812 -0.882812 53.28125 -0.53125 C 52.925781 -0.175781 52.503906 0 52.015625 0 L 40 0 C 39.519531 0 39.101562 -0.175781 38.75 -0.53125 C 38.394531 -0.882812 38.21875 -1.304688 38.21875 -1.796875 L 38.21875 -19.96875 L 33.828125 -12.796875 C 33.128906 -11.691406 32.3125 -11.140625 31.375 -11.140625 L 26.734375 -11.140625 C 25.804688 -11.140625 24.988281 -11.691406 24.28125 -12.796875 L 19.90625 -19.96875 L 19.90625 -1.796875 C 19.90625 -1.304688 19.726562 -0.882812 19.375 -0.53125 C 19.019531 -0.175781 18.597656 0 18.109375 0 L 6.109375 0 C 5.617188 0 5.195312 -0.175781 4.84375 -0.53125 C 4.488281 -0.882812 4.3125 -1.304688 4.3125 -1.796875 L 4.3125 -44.65625 C 4.3125 -45.132812 4.488281 -45.550781 4.84375 -45.90625 C 5.195312 -46.257812 5.617188 -46.4375 6.109375 -46.4375 L 16.59375 -46.4375 C 17.820312 -46.4375 18.769531 -45.84375 19.4375 -44.65625 L 29.0625 -28.734375 L 38.671875 -44.65625 C 39.335938 -45.84375 40.289062 -46.4375 41.53125 -46.4375 Z M 41.53125 -46.4375 "/></g></g></g><g fill="#fffcf6" fill-opacity="1"><g transform="translate(760.762527, 478.998212)"><g><path d="M 20.234375 -12.9375 L 40.671875 -12.9375 C 41.160156 -12.9375 41.578125 -12.757812 41.921875 -12.40625 C 42.273438 -12.050781 42.453125 -11.628906 42.453125 -11.140625 L 42.453125 -1.796875 C 42.453125 -1.304688 42.273438 -0.882812 41.921875 -0.53125 C 41.578125 -0.175781 41.160156 0 40.671875 0 L 6.109375 0 C 5.617188 0 5.195312 -0.175781 4.84375 -0.53125 C 4.488281 -0.882812 4.3125 -1.304688 4.3125 -1.796875 L 4.3125 -44.65625 C 4.3125 -45.132812 4.488281 -45.550781 4.84375 -45.90625 C 5.195312 -46.257812 5.617188 -46.4375 6.109375 -46.4375 L 40.140625 -46.4375 C 40.628906 -46.4375 41.046875 -46.257812 41.390625 -45.90625 C 41.742188 -45.550781 41.921875 -45.132812 41.921875 -44.65625 L 41.921875 -35.296875 C 41.921875 -34.804688 41.742188 -34.382812 41.390625 -34.03125 C 41.046875 -33.675781 40.628906 -33.5 40.140625 -33.5 L 20.234375 -33.5 L 20.234375 -29.328125 L 38.671875 -29.328125 C 39.160156 -29.328125 39.582031 -29.148438 39.9375 -28.796875 C 40.289062 -28.441406 40.46875 -28.019531 40.46875 -27.53125 L 40.46875 -18.90625 C 40.46875 -18.414062 40.289062 -17.992188 39.9375 -17.640625 C 39.582031 -17.285156 39.160156 -17.109375 38.671875 -17.109375 L 20.234375 -17.109375 Z M 20.234375 -12.9375 "/></g></g></g><g fill="#fffcf6" fill-opacity="1"><g transform="translate(806.860608, 478.998212)"><g><path d="M 32.3125 -46.4375 L 44.3125 -46.4375 C 44.800781 -46.4375 45.222656 -46.257812 45.578125 -45.90625 C 45.929688 -45.550781 46.109375 -45.132812 46.109375 -44.65625 L 46.109375 -1.796875 C 46.109375 -1.304688 45.929688 -0.882812 45.578125 -0.53125 C 45.222656 -0.175781 44.800781 0 44.3125 0 L 33.828125 0 C 32.679688 0 31.773438 -0.507812 31.109375 -1.53125 L 19.90625 -18.4375 L 19.90625 -1.796875 C 19.90625 -1.304688 19.726562 -0.882812 19.375 -0.53125 C 19.019531 -0.175781 18.597656 0 18.109375 0 L 6.109375 0 C 5.617188 0 5.195312 -0.175781 4.84375 -0.53125 C 4.488281 -0.882812 4.3125 -1.304688 4.3125 -1.796875 L 4.3125 -44.65625 C 4.3125 -45.132812 4.488281 -45.550781 4.84375 -45.90625 C 5.195312 -46.257812 5.617188 -46.4375 6.109375 -46.4375 L 16.59375 -46.4375 C 17.820312 -46.4375 18.726562 -45.929688 19.3125 -44.921875 L 30.515625 -26.53125 L 30.515625 -44.65625 C 30.515625 -45.132812 30.691406 -45.550781 31.046875 -45.90625 C 31.398438 -46.257812 31.820312 -46.4375 32.3125 -46.4375 Z M 32.3125 -46.4375 "/></g></g></g><g fill="#fffcf6" fill-opacity="1"><g transform="translate(857.269998, 478.998212)"><g><path d="M 18.84375 -46.4375 L 33.234375 -46.4375 C 34.828125 -46.4375 35.820312 -45.707031 36.21875 -44.25 L 51.015625 -1.921875 C 51.054688 -1.785156 51.078125 -1.570312 51.078125 -1.28125 C 51.078125 -1 50.929688 -0.710938 50.640625 -0.421875 C 50.359375 -0.140625 50.019531 0 49.625 0 L 37.34375 0 C 36.019531 0 35.160156 -0.550781 34.765625 -1.65625 L 33.171875 -6.03125 L 18.90625 -6.03125 L 17.3125 -1.65625 C 16.914062 -0.550781 16.054688 0 14.734375 0 L 2.453125 0 C 2.054688 0 1.710938 -0.140625 1.421875 -0.421875 C 1.140625 -0.710938 1 -1 1 -1.28125 C 1 -1.570312 1.019531 -1.785156 1.0625 -1.921875 L 15.859375 -44.25 C 16.253906 -45.707031 17.25 -46.4375 18.84375 -46.4375 Z M 22.296875 -18.96875 L 29.78125 -18.96875 L 26 -31.3125 Z M 22.296875 -18.96875 "/></g></g></g><g fill="#fffcf6" fill-opacity="1"><g transform="translate(928.572775, 478.998212)"><g><path d="M 47.765625 -2.1875 C 47.898438 -1.96875 47.96875 -1.691406 47.96875 -1.359375 C 47.96875 -1.023438 47.820312 -0.710938 47.53125 -0.421875 C 47.25 -0.140625 46.90625 0 46.5 0 L 31.375 0 C 30.09375 0 29.1875 -0.507812 28.65625 -1.53125 L 20.5625 -15.984375 L 20.5625 -1.796875 C 20.5625 -1.304688 20.382812 -0.882812 20.03125 -0.53125 C 19.675781 -0.175781 19.257812 0 18.78125 0 L 6.109375 0 C 5.617188 0 5.195312 -0.175781 4.84375 -0.53125 C 4.488281 -0.882812 4.3125 -1.304688 4.3125 -1.796875 L 4.3125 -44.65625 C 4.3125 -45.132812 4.488281 -45.550781 4.84375 -45.90625 C 5.195312 -46.257812 5.617188 -46.4375 6.109375 -46.4375 L 18.78125 -46.4375 C 19.257812 -46.4375 19.675781 -46.257812 20.03125 -45.90625 C 20.382812 -45.550781 20.5625 -45.132812 20.5625 -44.65625 L 20.5625 -31.515625 L 28.0625 -44.984375 C 28.550781 -45.953125 29.4375 -46.4375 30.71875 -46.4375 L 45.375 -46.4375 C 45.769531 -46.4375 46.113281 -46.289062 46.40625 -46 C 46.695312 -45.71875 46.84375 -45.410156 46.84375 -45.078125 C 46.84375 -44.742188 46.773438 -44.46875 46.640625 -44.25 L 34.703125 -24.21875 Z M 47.765625 -2.1875 "/></g></g></g><g fill="#fffcf6" fill-opacity="1"><g transform="translate(977.191303, 478.998212)"><g><path d="M 20.234375 -12.9375 L 40.671875 -12.9375 C 41.160156 -12.9375 41.578125 -12.757812 41.921875 -12.40625 C 42.273438 -12.050781 42.453125 -11.628906 42.453125 -11.140625 L 42.453125 -1.796875 C 42.453125 -1.304688 42.273438 -0.882812 41.921875 -0.53125 C 41.578125 -0.175781 41.160156 0 40.671875 0 L 6.109375 0 C 5.617188 0 5.195312 -0.175781 4.84375 -0.53125 C 4.488281 -0.882812 4.3125 -1.304688 4.3125 -1.796875 L 4.3125 -44.65625 C 4.3125 -45.132812 4.488281 -45.550781 4.84375 -45.90625 C 5.195312 -46.257812 5.617188 -46.4375 6.109375 -46.4375 L 40.140625 -46.4375 C 40.628906 -46.4375 41.046875 -46.257812 41.390625 -45.90625 C 41.742188 -45.550781 41.921875 -45.132812 41.921875 -44.65625 L 41.921875 -35.296875 C 41.921875 -34.804688 41.742188 -34.382812 41.390625 -34.03125 C 41.046875 -33.675781 40.628906 -33.5 40.140625 -33.5 L 20.234375 -33.5 L 20.234375 -29.328125 L 38.671875 -29.328125 C 39.160156 -29.328125 39.582031 -29.148438 39.9375 -28.796875 C 40.289062 -28.441406 40.46875 -28.019531 40.46875 -27.53125 L 40.46875 -18.90625 C 40.46875 -18.414062 40.289062 -17.992188 39.9375 -17.640625 C 39.582031 -17.285156 39.160156 -17.109375 38.671875 -17.109375 L 20.234375 -17.109375 Z M 20.234375 -12.9375 "/></g></g></g><g fill="#fffcf6" fill-opacity="1"><g transform="translate(1023.289384, 478.998212)"><g><path d="M 21.15625 -13.59375 L 39.546875 -13.59375 C 40.023438 -13.59375 40.441406 -13.414062 40.796875 -13.0625 C 41.148438 -12.707031 41.328125 -12.289062 41.328125 -11.8125 L 41.328125 -1.796875 C 41.328125 -1.304688 41.148438 -0.882812 40.796875 -0.53125 C 40.441406 -0.175781 40.023438 0 39.546875 0 L 6.109375 0 C 5.617188 0 5.195312 -0.175781 4.84375 -0.53125 C 4.488281 -0.882812 4.3125 -1.304688 4.3125 -1.796875 L 4.3125 -44.65625 C 4.3125 -45.132812 4.488281 -45.550781 4.84375 -45.90625 C 5.195312 -46.257812 5.617188 -46.4375 6.109375 -46.4375 L 19.375 -46.4375 C 19.863281 -46.4375 20.28125 -46.257812 20.625 -45.90625 C 20.976562 -45.550781 21.15625 -45.132812 21.15625 -44.65625 Z M 21.15625 -13.59375 "/></g></g></g><g fill="#fffcf6" fill-opacity="1"><g transform="translate(1066.270049, 478.998212)"><g><path d="M 21.15625 -13.59375 L 39.546875 -13.59375 C 40.023438 -13.59375 40.441406 -13.414062 40.796875 -13.0625 C 41.148438 -12.707031 41.328125 -12.289062 41.328125 -11.8125 L 41.328125 -1.796875 C 41.328125 -1.304688 41.148438 -0.882812 40.796875 -0.53125 C 40.441406 -0.175781 40.023438 0 39.546875 0 L 6.109375 0 C 5.617188 0 5.195312 -0.175781 4.84375 -0.53125 C 4.488281 -0.882812 4.3125 -1.304688 4.3125 -1.796875 L 4.3125 -44.65625 C 4.3125 -45.132812 4.488281 -45.550781 4.84375 -45.90625 C 5.195312 -46.257812 5.617188 -46.4375 6.109375 -46.4375 L 19.375 -46.4375 C 19.863281 -46.4375 20.28125 -46.257812 20.625 -45.90625 C 20.976562 -45.550781 21.15625 -45.132812 21.15625 -44.65625 Z M 21.15625 -13.59375 "/></g></g></g><g fill="#fffcf6" fill-opacity="1"><g transform="translate(1109.250713, 478.998212)"><g><path d="M 30.515625 0 L 17.515625 0 C 17.023438 0 16.601562 -0.175781 16.25 -0.53125 C 15.894531 -0.882812 15.71875 -1.304688 15.71875 -1.796875 L 15.71875 -14.859375 L 0.796875 -44.390625 C 0.703125 -44.566406 0.65625 -44.804688 0.65625 -45.109375 C 0.65625 -45.421875 0.800781 -45.71875 1.09375 -46 C 1.382812 -46.289062 1.726562 -46.4375 2.125 -46.4375 L 14.59375 -46.4375 C 15.925781 -46.4375 16.851562 -45.882812 17.375 -44.78125 L 24.015625 -31.453125 L 30.65625 -44.78125 C 31.1875 -45.882812 32.113281 -46.4375 33.4375 -46.4375 L 45.90625 -46.4375 C 46.300781 -46.4375 46.644531 -46.289062 46.9375 -46 C 47.226562 -45.71875 47.375 -45.421875 47.375 -45.109375 C 47.375 -44.804688 47.328125 -44.566406 47.234375 -44.390625 L 32.3125 -14.859375 L 32.3125 -1.796875 C 32.3125 -1.304688 32.132812 -0.882812 31.78125 -0.53125 C 31.425781 -0.175781 31.003906 0 30.515625 0 Z M 30.515625 0 "/></g></g></g><g fill="#fffcf6" fill-opacity="1"><g transform="translate(653.136392, 571.248207)"><g><path d="M 3.125 -31.84375 C 3.125 -36.351562 4.988281 -40.023438 8.71875 -42.859375 C 12.457031 -45.691406 17.367188 -47.109375 23.453125 -47.109375 C 29.535156 -47.109375 34.507812 -45.625 38.375 -42.65625 C 42.25 -39.695312 44.1875 -36.601562 44.1875 -33.375 C 44.1875 -32.976562 44.039062 -32.632812 43.75 -32.34375 C 43.46875 -32.050781 43.148438 -31.90625 42.796875 -31.90625 L 29.515625 -31.90625 C 28.503906 -31.90625 27.578125 -32.28125 26.734375 -33.03125 C 25.890625 -33.789062 24.765625 -34.171875 23.359375 -34.171875 C 21.234375 -34.171875 20.171875 -33.550781 20.171875 -32.3125 C 20.171875 -31.644531 20.6875 -31.085938 21.71875 -30.640625 C 22.757812 -30.203125 24.695312 -29.804688 27.53125 -29.453125 C 34.125 -28.617188 38.820312 -27.082031 41.625 -24.84375 C 44.4375 -22.613281 45.84375 -19.226562 45.84375 -14.6875 C 45.84375 -10.15625 43.773438 -6.460938 39.640625 -3.609375 C 35.503906 -0.765625 30.097656 0.65625 23.421875 0.65625 C 16.742188 0.65625 11.5 -0.710938 7.6875 -3.453125 C 3.882812 -6.191406 1.984375 -9.53125 1.984375 -13.46875 C 1.984375 -13.863281 2.128906 -14.203125 2.421875 -14.484375 C 2.710938 -14.773438 3.054688 -14.921875 3.453125 -14.921875 L 16.0625 -14.921875 C 16.988281 -14.921875 18.015625 -14.476562 19.140625 -13.59375 C 20.265625 -12.71875 21.820312 -12.28125 23.8125 -12.28125 C 27.132812 -12.28125 28.796875 -12.894531 28.796875 -14.125 C 28.796875 -14.925781 28.195312 -15.535156 27 -15.953125 C 25.800781 -16.378906 23.546875 -16.8125 20.234375 -17.25 C 8.828125 -18.75 3.125 -23.613281 3.125 -31.84375 Z M 3.125 -31.84375 "/></g></g></g><g fill="#fffcf6" fill-opacity="1"><g transform="translate(700.958995, 571.248207)"><g><path d="M 33.4375 -46.4375 L 46.4375 -46.4375 C 46.925781 -46.4375 47.347656 -46.257812 47.703125 -45.90625 C 48.054688 -45.550781 48.234375 -45.132812 48.234375 -44.65625 L 48.234375 -1.796875 C 48.234375 -1.304688 48.054688 -0.882812 47.703125 -0.53125 C 47.347656 -0.175781 46.925781 0 46.4375 0 L 33.4375 0 C 32.945312 0 32.523438 -0.175781 32.171875 -0.53125 C 31.816406 -0.882812 31.640625 -1.304688 31.640625 -1.796875 L 31.640625 -16.125 L 20.890625 -16.125 L 20.890625 -1.796875 C 20.890625 -1.304688 20.710938 -0.882812 20.359375 -0.53125 C 20.015625 -0.175781 19.597656 0 19.109375 0 L 6.109375 0 C 5.617188 0 5.195312 -0.164062 4.84375 -0.5 C 4.488281 -0.832031 4.3125 -1.265625 4.3125 -1.796875 L 4.3125 -44.65625 C 4.3125 -45.132812 4.488281 -45.550781 4.84375 -45.90625 C 5.195312 -46.257812 5.617188 -46.4375 6.109375 -46.4375 L 19.109375 -46.4375 C 19.597656 -46.4375 20.015625 -46.257812 20.359375 -45.90625 C 20.710938 -45.550781 20.890625 -45.132812 20.890625 -44.65625 L 20.890625 -30.71875 L 31.640625 -30.71875 L 31.640625 -44.65625 C 31.640625 -45.132812 31.816406 -45.550781 32.171875 -45.90625 C 32.523438 -46.257812 32.945312 -46.4375 33.4375 -46.4375 Z M 33.4375 -46.4375 "/></g></g></g><g fill="#fffcf6" fill-opacity="1"><g transform="translate(753.490899, 571.248207)"><g><path d="M 20.234375 -12.9375 L 40.671875 -12.9375 C 41.160156 -12.9375 41.578125 -12.757812 41.921875 -12.40625 C 42.273438 -12.050781 42.453125 -11.628906 42.453125 -11.140625 L 42.453125 -1.796875 C 42.453125 -1.304688 42.273438 -0.882812 41.921875 -0.53125 C 41.578125 -0.175781 41.160156 0 40.671875 0 L 6.109375 0 C 5.617188 0 5.195312 -0.175781 4.84375 -0.53125 C 4.488281 -0.882812 4.3125 -1.304688 4.3125 -1.796875 L 4.3125 -44.65625 C 4.3125 -45.132812 4.488281 -45.550781 4.84375 -45.90625 C 5.195312 -46.257812 5.617188 -46.4375 6.109375 -46.4375 L 40.140625 -46.4375 C 40.628906 -46.4375 41.046875 -46.257812 41.390625 -45.90625 C 41.742188 -45.550781 41.921875 -45.132812 41.921875 -44.65625 L 41.921875 -35.296875 C 41.921875 -34.804688 41.742188 -34.382812 41.390625 -34.03125 C 41.046875 -33.675781 40.628906 -33.5 40.140625 -33.5 L 20.234375 -33.5 L 20.234375 -29.328125 L 38.671875 -29.328125 C 39.160156 -29.328125 39.582031 -29.148438 39.9375 -28.796875 C 40.289062 -28.441406 40.46875 -28.019531 40.46875 -27.53125 L 40.46875 -18.90625 C 40.46875 -18.414062 40.289062 -17.992188 39.9375 -17.640625 C 39.582031 -17.285156 39.160156 -17.109375 38.671875 -17.109375 L 20.234375 -17.109375 Z M 20.234375 -12.9375 "/></g></g></g><g fill="#fffcf6" fill-opacity="1"><g transform="translate(799.588969, 571.248207)"><g/></g></g><g fill="#fffcf6" fill-opacity="1"><g transform="translate(818.82414, 571.248207)"><g><path d="M 5.765625 -59.4375 L 14.65625 -59.4375 C 15.144531 -59.4375 15.566406 -59.257812 15.921875 -58.90625 C 16.273438 -58.550781 16.453125 -58.132812 16.453125 -57.65625 L 16.453125 12.015625 C 16.453125 12.492188 16.273438 12.910156 15.921875 13.265625 C 15.566406 13.617188 15.144531 13.796875 14.65625 13.796875 L 5.765625 13.796875 C 5.285156 13.796875 4.867188 13.617188 4.515625 13.265625 C 4.160156 12.910156 3.984375 12.492188 3.984375 12.015625 L 3.984375 -57.65625 C 3.984375 -58.132812 4.160156 -58.550781 4.515625 -58.90625 C 4.867188 -59.257812 5.285156 -59.4375 5.765625 -59.4375 Z M 5.765625 -59.4375 "/></g></g></g><g fill="#fffcf6" fill-opacity="1"><g transform="translate(839.253216, 571.248207)"><g/></g></g><g fill="#fffcf6" fill-opacity="1"><g transform="translate(858.488387, 571.248207)"><g><path d="M 33.4375 -46.4375 L 46.4375 -46.4375 C 46.925781 -46.4375 47.347656 -46.257812 47.703125 -45.90625 C 48.054688 -45.550781 48.234375 -45.132812 48.234375 -44.65625 L 48.234375 -1.796875 C 48.234375 -1.304688 48.054688 -0.882812 47.703125 -0.53125 C 47.347656 -0.175781 46.925781 0 46.4375 0 L 33.4375 0 C 32.945312 0 32.523438 -0.175781 32.171875 -0.53125 C 31.816406 -0.882812 31.640625 -1.304688 31.640625 -1.796875 L 31.640625 -16.125 L 20.890625 -16.125 L 20.890625 -1.796875 C 20.890625 -1.304688 20.710938 -0.882812 20.359375 -0.53125 C 20.015625 -0.175781 19.597656 0 19.109375 0 L 6.109375 0 C 5.617188 0 5.195312 -0.164062 4.84375 -0.5 C 4.488281 -0.832031 4.3125 -1.265625 4.3125 -1.796875 L 4.3125 -44.65625 C 4.3125 -45.132812 4.488281 -45.550781 4.84375 -45.90625 C 5.195312 -46.257812 5.617188 -46.4375 6.109375 -46.4375 L 19.109375 -46.4375 C 19.597656 -46.4375 20.015625 -46.257812 20.359375 -45.90625 C 20.710938 -45.550781 20.890625 -45.132812 20.890625 -44.65625 L 20.890625 -30.71875 L 31.640625 -30.71875 L 31.640625 -44.65625 C 31.640625 -45.132812 31.816406 -45.550781 32.171875 -45.90625 C 32.523438 -46.257812 32.945312 -46.4375 33.4375 -46.4375 Z M 33.4375 -46.4375 "/></g></g></g><g fill="#fffcf6" fill-opacity="1"><g transform="translate(911.020291, 571.248207)"><g><path d="M 20.234375 -12.9375 L 40.671875 -12.9375 C 41.160156 -12.9375 41.578125 -12.757812 41.921875 -12.40625 C 42.273438 -12.050781 42.453125 -11.628906 42.453125 -11.140625 L 42.453125 -1.796875 C 42.453125 -1.304688 42.273438 -0.882812 41.921875 -0.53125 C 41.578125 -0.175781 41.160156 0 40.671875 0 L 6.109375 0 C 5.617188 0 5.195312 -0.175781 4.84375 -0.53125 C 4.488281 -0.882812 4.3125 -1.304688 4.3125 -1.796875 L 4.3125 -44.65625 C 4.3125 -45.132812 4.488281 -45.550781 4.84375 -45.90625 C 5.195312 -46.257812 5.617188 -46.4375 6.109375 -46.4375 L 40.140625 -46.4375 C 40.628906 -46.4375 41.046875 -46.257812 41.390625 -45.90625 C 41.742188 -45.550781 41.921875 -45.132812 41.921875 -44.65625 L 41.921875 -35.296875 C 41.921875 -34.804688 41.742188 -34.382812 41.390625 -34.03125 C 41.046875 -33.675781 40.628906 -33.5 40.140625 -33.5 L 20.234375 -33.5 L 20.234375 -29.328125 L 38.671875 -29.328125 C 39.160156 -29.328125 39.582031 -29.148438 39.9375 -28.796875 C 40.289062 -28.441406 40.46875 -28.019531 40.46875 -27.53125 L 40.46875 -18.90625 C 40.46875 -18.414062 40.289062 -17.992188 39.9375 -17.640625 C 39.582031 -17.285156 39.160156 -17.109375 38.671875 -17.109375 L 20.234375 -17.109375 Z M 20.234375 -12.9375 "/></g></g></g><g fill="#fffcf6" fill-opacity="1"><g transform="translate(957.118372, 571.248207)"><g><path d="M 47.03125 -2.1875 C 47.164062 -1.925781 47.234375 -1.640625 47.234375 -1.328125 C 47.234375 -1.015625 47.085938 -0.710938 46.796875 -0.421875 C 46.515625 -0.140625 46.175781 0 45.78125 0 L 32.171875 0 C 30.804688 0 29.859375 -0.597656 29.328125 -1.796875 L 23.625 -14.46875 L 20.890625 -14.46875 L 20.890625 -1.796875 C 20.890625 -1.304688 20.710938 -0.882812 20.359375 -0.53125 C 20.015625 -0.175781 19.597656 0 19.109375 0 L 6.109375 0 C 5.617188 0 5.195312 -0.175781 4.84375 -0.53125 C 4.488281 -0.882812 4.3125 -1.304688 4.3125 -1.796875 L 4.3125 -44.65625 C 4.3125 -45.132812 4.488281 -45.550781 4.84375 -45.90625 C 5.195312 -46.257812 5.617188 -46.4375 6.109375 -46.4375 L 25.734375 -46.4375 C 32.109375 -46.4375 37.085938 -45.007812 40.671875 -42.15625 C 44.253906 -39.300781 46.046875 -35.207031 46.046875 -29.875 C 46.046875 -24.550781 43.65625 -20.363281 38.875 -17.3125 Z M 20.890625 -34.09375 L 20.890625 -27.0625 L 25.734375 -27.0625 C 26.710938 -27.0625 27.46875 -27.382812 28 -28.03125 C 28.53125 -28.675781 28.796875 -29.484375 28.796875 -30.453125 C 28.796875 -31.421875 28.539062 -32.269531 28.03125 -33 C 27.519531 -33.726562 26.753906 -34.09375 25.734375 -34.09375 Z M 20.890625 -34.09375 "/></g></g></g></svg>