<svg xmlns="http://www.w3.org/2000/svg" xmlns:xlink="http://www.w3.org/1999/xlink" width="1920" zoomAndPan="magnify" viewBox="0 0 1440 809.999993" height="1080" preserveAspectRatio="xMidYMid meet" version="1.0"><defs><g/><clipPath id="id1"><path d="M 0 74.21875 L 1093.953125 74.21875 L 1093.953125 259.46875 L 0 259.46875 Z M 0 74.21875 " clip-rule="nonzero"/></clipPath><clipPath id="id2"><path d="M 1116 74.359375 L 1440 74.359375 L 1440 259.609375 L 1116 259.609375 Z M 1116 74.359375 " clip-rule="nonzero"/></clipPath><clipPath id="id3"><path d="M 473.246094 319.082031 L 1439.996094 319.082031 L 1439.996094 504.332031 L 473.246094 504.332031 Z M 473.246094 319.082031 " clip-rule="nonzero"/></clipPath><clipPath id="id4"><path d="M 256.453125 319.082031 L 441.703125 319.082031 L 441.703125 504.332031 L 256.453125 504.332031 Z M 256.453125 319.082031 " clip-rule="nonzero"/></clipPath><clipPath id="id5"><path d="M 0 319.082031 L 224.929688 319.082031 L 224.929688 504.332031 L 0 504.332031 Z M 0 319.082031 " clip-rule="nonzero"/></clipPath><clipPath id="id6"><path d="M 0 550.386719 L 827.996094 550.386719 L 827.996094 735.636719 L 0 735.636719 Z M 0 550.386719 " clip-rule="nonzero"/></clipPath><clipPath id="id7"><path d="M 852.664062 550.527344 L 1037.914062 550.527344 L 1037.914062 735.777344 L 852.664062 735.777344 Z M 852.664062 550.527344 " clip-rule="nonzero"/></clipPath><clipPath id="id8"><path d="M 1062.640625 550.527344 L 1440 550.527344 L 1440 735.777344 L 1062.640625 735.777344 Z M 1062.640625 550.527344 " clip-rule="nonzero"/></clipPath></defs><rect x="-144" width="1728" fill="#eab2bb" y="-80.999999" height="971.999992" fill-opacity="1"/><rect x="-144" width="1728" fill="#ffffff" y="-80.999999" height="971.999992" fill-opacity="1"/><rect x="-144" width="1728" fill="#eab2bb" y="-80.999999" height="971.999992" fill-opacity="1"/><g clip-path="url(#id1)"><path fill="#3c6ca8" d="M 1088.597656 197.6875 C 1091.824219 188.191406 1093.941406 177.390625 1093.941406 166.796875 C 1093.941406 156.199219 1092.125 146 1088.898438 136.601562 C 1088.796875 136.402344 1088.796875 136.203125 1088.699219 136.003906 C 1075.792969 100.714844 1041.707031 74.71875 981.832031 74.21875 L -36.285156 74.21875 L -36.285156 259.46875 L 981.078125 259.46875 C 1041.910156 258.96875 1075.992188 233.378906 1088.597656 197.6875 " fill-opacity="1" fill-rule="nonzero"/></g><g clip-path="url(#id2)"><path fill="#3c6ca8" d="M 1442.617188 74.359375 L 1208.632812 74.359375 L 1116 166.984375 L 1208.632812 259.609375 L 1442.617188 259.609375 L 1535.25 166.984375 L 1442.617188 74.359375 " fill-opacity="1" fill-rule="nonzero"/></g><g clip-path="url(#id3)"><path fill="#1b548d" d="M 478.601562 380.867188 C 475.375 390.363281 473.257812 401.160156 473.257812 411.757812 C 473.257812 422.355469 475.070312 432.554688 478.296875 441.949219 C 478.398438 442.148438 478.398438 442.351562 478.5 442.550781 C 491.40625 477.839844 525.488281 503.832031 581.730469 504.332031 L 1439.984375 504.332031 L 1439.984375 319.082031 L 582.371094 319.082031 C 525.285156 319.582031 491.203125 345.175781 478.601562 380.867188 " fill-opacity="1" fill-rule="nonzero"/></g><g clip-path="url(#id4)"><path fill="#3c6ca8" d="M 349.078125 319.082031 L 375.664062 347.527344 L 414.574219 346.210938 L 413.257812 385.125 L 441.703125 411.707031 L 413.257812 438.292969 L 414.574219 477.203125 L 375.664062 475.886719 L 349.078125 504.332031 L 322.496094 475.886719 L 283.582031 477.203125 L 284.898438 438.292969 L 256.453125 411.707031 L 284.898438 385.125 L 283.582031 346.210938 L 322.496094 347.527344 L 349.078125 319.082031 " fill-opacity="1" fill-rule="nonzero"/></g><g clip-path="url(#id5)"><path fill="#5eb090" d="M 132.378906 319.082031 L -35.019531 319.082031 L -127.570312 411.707031 L -35.019531 504.332031 L 132.378906 504.332031 L 224.929688 411.707031 L 132.378906 319.082031 " fill-opacity="1" fill-rule="nonzero"/></g><g clip-path="url(#id6)"><path fill="#3c6ca8" d="M 822.640625 673.855469 C 825.871094 664.355469 827.988281 653.558594 827.988281 642.960938 C 827.988281 632.363281 826.171875 622.167969 822.945312 612.769531 C 822.84375 612.570312 822.84375 612.371094 822.742188 612.171875 C 809.828125 576.878906 775.734375 550.886719 722.558594 550.386719 L 0.0078125 550.386719 L 0.0078125 735.636719 L 722.019531 735.636719 C 775.933594 735.136719 810.03125 709.542969 822.640625 673.855469 " fill-opacity="1" fill-rule="nonzero"/></g><g clip-path="url(#id7)"><path fill="#eae164" d="M 945.289062 550.527344 L 958.332031 560.816406 L 973.914062 555.058594 L 983.136719 568.875 L 999.734375 568.214844 L 1004.234375 584.203125 L 1020.226562 588.707031 L 1019.566406 605.304688 L 1033.382812 614.527344 L 1027.625 630.109375 L 1037.914062 643.152344 L 1027.625 656.191406 L 1033.382812 671.773438 L 1019.566406 680.996094 L 1020.226562 697.59375 L 1004.234375 702.097656 L 999.734375 718.085938 L 983.136719 717.425781 L 973.914062 731.242188 L 958.332031 725.488281 L 945.289062 735.777344 L 932.25 725.488281 L 916.667969 731.242188 L 907.445312 717.425781 L 890.847656 718.085938 L 886.34375 702.097656 L 870.355469 697.59375 L 871.011719 680.996094 L 857.199219 671.773438 L 862.953125 656.191406 L 852.664062 643.152344 L 862.953125 630.109375 L 857.199219 614.527344 L 871.011719 605.304688 L 870.355469 588.707031 L 886.34375 584.203125 L 890.847656 568.214844 L 907.445312 568.875 L 916.667969 555.058594 L 932.25 560.816406 L 945.289062 550.527344 " fill-opacity="1" fill-rule="nonzero"/></g><g clip-path="url(#id8)"><path fill="#b78fd6" d="M 1464.316406 550.527344 L 1155.214844 550.527344 L 1062.644531 643.152344 L 1155.214844 735.777344 L 1464.316406 735.777344 L 1556.890625 643.152344 L 1464.316406 550.527344 " fill-opacity="1" fill-rule="nonzero"/></g><g fill="#fffcf6" fill-opacity="1"><g transform="translate(323.066534, 196.542433)"><g><path d="M 40.796875 -42.75 C 41.460938 -43.570312 41.796875 -44.550781 41.796875 -45.6875 C 41.796875 -46.832031 41.460938 -47.863281 40.796875 -48.78125 C 40.140625 -49.695312 39.175781 -50.15625 37.90625 -50.15625 L 29.921875 -50.15625 L 29.921875 -41.515625 L 37.90625 -41.515625 C 39.175781 -41.515625 40.140625 -41.925781 40.796875 -42.75 Z M 29.921875 -25.65625 L 29.921875 -16.34375 L 38.765625 -16.34375 C 40.210938 -16.34375 41.300781 -16.832031 42.03125 -17.8125 C 42.757812 -18.789062 43.125 -19.882812 43.125 -21.09375 L 43.125 -21.1875 C 43.125 -22.382812 42.726562 -23.425781 41.9375 -24.3125 C 41.144531 -25.207031 40.085938 -25.65625 38.765625 -25.65625 Z M 41.234375 0 L 8.734375 0 C 8.035156 0 7.429688 -0.25 6.921875 -0.75 C 6.421875 -1.257812 6.171875 -1.863281 6.171875 -2.5625 L 6.171875 -63.9375 C 6.171875 -64.632812 6.421875 -65.234375 6.921875 -65.734375 C 7.429688 -66.242188 8.035156 -66.5 8.734375 -66.5 L 40.28125 -66.5 C 49.269531 -66.5 55.898438 -64.867188 60.171875 -61.609375 C 64.453125 -58.347656 66.59375 -53.421875 66.59375 -46.828125 L 66.59375 -46.546875 C 66.59375 -43.828125 65.800781 -41.40625 64.21875 -39.28125 C 62.632812 -37.15625 60.894531 -35.617188 59 -34.671875 C 61.53125 -33.660156 63.664062 -31.867188 65.40625 -29.296875 C 67.144531 -26.734375 68.015625 -23.9375 68.015625 -20.90625 C 68.015625 -6.96875 59.085938 0 41.234375 0 Z M 41.234375 0 "/></g></g></g><g fill="#fffcf6" fill-opacity="1"><g transform="translate(394.880644, 196.542433)"><g><path d="M 30.3125 -19.46875 L 56.625 -19.46875 C 57.320312 -19.46875 57.921875 -19.210938 58.421875 -18.703125 C 58.929688 -18.203125 59.1875 -17.601562 59.1875 -16.90625 L 59.1875 -2.5625 C 59.1875 -1.863281 58.929688 -1.257812 58.421875 -0.75 C 57.921875 -0.25 57.320312 0 56.625 0 L 8.734375 0 C 8.035156 0 7.429688 -0.25 6.921875 -0.75 C 6.421875 -1.257812 6.171875 -1.863281 6.171875 -2.5625 L 6.171875 -63.9375 C 6.171875 -64.632812 6.421875 -65.234375 6.921875 -65.734375 C 7.429688 -66.242188 8.035156 -66.5 8.734375 -66.5 L 27.734375 -66.5 C 28.429688 -66.5 29.035156 -66.242188 29.546875 -65.734375 C 30.054688 -65.234375 30.3125 -64.632812 30.3125 -63.9375 Z M 30.3125 -19.46875 "/></g></g></g><g fill="#fffcf6" fill-opacity="1"><g transform="translate(456.435595, 196.542433)"><g><path d="M 12.96875 -60.421875 C 18.757812 -65.109375 26.4375 -67.453125 36 -67.453125 C 45.5625 -67.453125 53.238281 -65.09375 59.03125 -60.375 C 64.832031 -55.65625 67.734375 -49.019531 67.734375 -40.46875 L 67.734375 -25.65625 C 67.734375 -16.976562 64.867188 -10.375 59.140625 -5.84375 C 53.410156 -1.3125 45.695312 0.953125 36 0.953125 C 26.3125 0.953125 18.601562 -1.3125 12.875 -5.84375 C 7.144531 -10.375 4.28125 -16.976562 4.28125 -25.65625 L 4.28125 -40.46875 C 4.28125 -49.082031 7.175781 -55.734375 12.96875 -60.421875 Z M 30.875 -19.46875 C 32.144531 -18.207031 33.851562 -17.578125 36 -17.578125 C 38.15625 -17.578125 39.863281 -18.207031 41.125 -19.46875 C 42.394531 -20.738281 43.03125 -22.671875 43.03125 -25.265625 L 43.03125 -41.234375 C 43.03125 -43.765625 42.394531 -45.675781 41.125 -46.96875 C 39.863281 -48.269531 38.15625 -48.921875 36 -48.921875 C 33.851562 -48.921875 32.144531 -48.269531 30.875 -46.96875 C 29.601562 -45.675781 28.96875 -43.765625 28.96875 -41.234375 L 28.96875 -25.265625 C 28.96875 -22.671875 29.601562 -20.738281 30.875 -19.46875 Z M 30.875 -19.46875 "/></g></g></g><g fill="#fffcf6" fill-opacity="1"><g transform="translate(528.4397, 196.542433)"><g><path d="M 28.96875 -41.234375 L 28.96875 -25.265625 C 28.96875 -20.140625 31.3125 -17.578125 36 -17.578125 C 39.613281 -17.578125 41.988281 -19.285156 43.125 -22.703125 C 43.445312 -23.773438 43.84375 -24.5 44.3125 -24.875 C 44.789062 -25.257812 45.566406 -25.453125 46.640625 -25.453125 L 66.03125 -25.453125 C 66.59375 -25.453125 67.078125 -25.242188 67.484375 -24.828125 C 67.898438 -24.421875 68.109375 -23.9375 68.109375 -23.375 C 68.109375 -17.863281 66.523438 -13.238281 63.359375 -9.5 C 57.535156 -2.53125 48.445312 0.953125 36.09375 0.953125 C 26.40625 0.953125 18.679688 -1.179688 12.921875 -5.453125 C 7.160156 -9.734375 4.28125 -16.304688 4.28125 -25.171875 L 4.28125 -41.328125 C 4.28125 -50.003906 7.222656 -56.523438 13.109375 -60.890625 C 18.992188 -65.265625 26.65625 -67.453125 36.09375 -67.453125 C 48.445312 -67.453125 57.535156 -63.96875 63.359375 -57 C 66.523438 -53.257812 68.109375 -48.632812 68.109375 -43.125 C 68.109375 -42.5625 67.898438 -42.070312 67.484375 -41.65625 C 67.078125 -41.25 66.59375 -41.046875 66.03125 -41.046875 L 46.640625 -41.046875 C 45.628906 -41.046875 44.882812 -41.234375 44.40625 -41.609375 C 43.9375 -41.992188 43.507812 -42.722656 43.125 -43.796875 C 41.925781 -47.210938 39.550781 -48.921875 36 -48.921875 C 31.3125 -48.921875 28.96875 -46.359375 28.96875 -41.234375 Z M 28.96875 -41.234375 "/></g></g></g><g fill="#fffcf6" fill-opacity="1"><g transform="translate(599.398902, 196.542433)"><g><path d="M 68.40625 -3.140625 C 68.59375 -2.816406 68.6875 -2.414062 68.6875 -1.9375 C 68.6875 -1.46875 68.476562 -1.023438 68.0625 -0.609375 C 67.65625 -0.203125 67.164062 0 66.59375 0 L 44.9375 0 C 43.101562 0 41.804688 -0.726562 41.046875 -2.1875 L 29.453125 -22.890625 L 29.453125 -2.5625 C 29.453125 -1.863281 29.195312 -1.257812 28.6875 -0.75 C 28.1875 -0.25 27.585938 0 26.890625 0 L 8.734375 0 C 8.035156 0 7.429688 -0.25 6.921875 -0.75 C 6.421875 -1.257812 6.171875 -1.863281 6.171875 -2.5625 L 6.171875 -63.9375 C 6.171875 -64.632812 6.421875 -65.234375 6.921875 -65.734375 C 7.429688 -66.242188 8.035156 -66.5 8.734375 -66.5 L 26.890625 -66.5 C 27.585938 -66.5 28.1875 -66.242188 28.6875 -65.734375 C 29.195312 -65.234375 29.453125 -64.632812 29.453125 -63.9375 L 29.453125 -45.125 L 40.1875 -64.40625 C 40.882812 -65.800781 42.148438 -66.5 43.984375 -66.5 L 64.984375 -66.5 C 65.546875 -66.5 66.03125 -66.289062 66.4375 -65.875 C 66.851562 -65.46875 67.0625 -65.023438 67.0625 -64.546875 C 67.0625 -64.078125 66.96875 -63.679688 66.78125 -63.359375 L 49.6875 -34.671875 Z M 68.40625 -3.140625 "/></g></g></g><g fill="#fffcf6" fill-opacity="1"><g transform="translate(737.335931, 441.264432)"><g><path d="M 28.96875 -18.53125 L 58.234375 -18.53125 C 58.929688 -18.53125 59.53125 -18.273438 60.03125 -17.765625 C 60.539062 -17.253906 60.796875 -16.648438 60.796875 -15.953125 L 60.796875 -2.5625 C 60.796875 -1.863281 60.539062 -1.257812 60.03125 -0.75 C 59.53125 -0.25 58.929688 0 58.234375 0 L 8.734375 0 C 8.035156 0 7.429688 -0.25 6.921875 -0.75 C 6.421875 -1.257812 6.171875 -1.863281 6.171875 -2.5625 L 6.171875 -63.9375 C 6.171875 -64.632812 6.421875 -65.234375 6.921875 -65.734375 C 7.429688 -66.242188 8.035156 -66.5 8.734375 -66.5 L 57.46875 -66.5 C 58.164062 -66.5 58.769531 -66.242188 59.28125 -65.734375 C 59.789062 -65.234375 60.046875 -64.632812 60.046875 -63.9375 L 60.046875 -50.546875 C 60.046875 -49.847656 59.789062 -49.242188 59.28125 -48.734375 C 58.769531 -48.222656 58.164062 -47.96875 57.46875 -47.96875 L 28.96875 -47.96875 L 28.96875 -41.984375 L 55.390625 -41.984375 C 56.085938 -41.984375 56.6875 -41.726562 57.1875 -41.21875 C 57.695312 -40.71875 57.953125 -40.117188 57.953125 -39.421875 L 57.953125 -27.078125 C 57.953125 -26.378906 57.695312 -25.773438 57.1875 -25.265625 C 56.6875 -24.765625 56.085938 -24.515625 55.390625 -24.515625 L 28.96875 -24.515625 Z M 28.96875 -18.53125 "/></g></g></g><g fill="#fffcf6" fill-opacity="1"><g transform="translate(803.35552, 441.264432)"><g><path d="M 30.3125 -19.46875 L 56.625 -19.46875 C 57.320312 -19.46875 57.921875 -19.210938 58.421875 -18.703125 C 58.929688 -18.203125 59.1875 -17.601562 59.1875 -16.90625 L 59.1875 -2.5625 C 59.1875 -1.863281 58.929688 -1.257812 58.421875 -0.75 C 57.921875 -0.25 57.320312 0 56.625 0 L 8.734375 0 C 8.035156 0 7.429688 -0.25 6.921875 -0.75 C 6.421875 -1.257812 6.171875 -1.863281 6.171875 -2.5625 L 6.171875 -63.9375 C 6.171875 -64.632812 6.421875 -65.234375 6.921875 -65.734375 C 7.429688 -66.242188 8.035156 -66.5 8.734375 -66.5 L 27.734375 -66.5 C 28.429688 -66.5 29.035156 -66.242188 29.546875 -65.734375 C 30.054688 -65.234375 30.3125 -64.632812 30.3125 -63.9375 Z M 30.3125 -19.46875 "/></g></g></g><g fill="#fffcf6" fill-opacity="1"><g transform="translate(864.910472, 441.264432)"><g><path d="M 28.96875 -18.53125 L 58.234375 -18.53125 C 58.929688 -18.53125 59.53125 -18.273438 60.03125 -17.765625 C 60.539062 -17.253906 60.796875 -16.648438 60.796875 -15.953125 L 60.796875 -2.5625 C 60.796875 -1.863281 60.539062 -1.257812 60.03125 -0.75 C 59.53125 -0.25 58.929688 0 58.234375 0 L 8.734375 0 C 8.035156 0 7.429688 -0.25 6.921875 -0.75 C 6.421875 -1.257812 6.171875 -1.863281 6.171875 -2.5625 L 6.171875 -63.9375 C 6.171875 -64.632812 6.421875 -65.234375 6.921875 -65.734375 C 7.429688 -66.242188 8.035156 -66.5 8.734375 -66.5 L 57.46875 -66.5 C 58.164062 -66.5 58.769531 -66.242188 59.28125 -65.734375 C 59.789062 -65.234375 60.046875 -64.632812 60.046875 -63.9375 L 60.046875 -50.546875 C 60.046875 -49.847656 59.789062 -49.242188 59.28125 -48.734375 C 58.769531 -48.222656 58.164062 -47.96875 57.46875 -47.96875 L 28.96875 -47.96875 L 28.96875 -41.984375 L 55.390625 -41.984375 C 56.085938 -41.984375 56.6875 -41.726562 57.1875 -41.21875 C 57.695312 -40.71875 57.953125 -40.117188 57.953125 -39.421875 L 57.953125 -27.078125 C 57.953125 -26.378906 57.695312 -25.773438 57.1875 -25.265625 C 56.6875 -24.765625 56.085938 -24.515625 55.390625 -24.515625 L 28.96875 -24.515625 Z M 28.96875 -18.53125 "/></g></g></g><g fill="#fffcf6" fill-opacity="1"><g transform="translate(930.930061, 441.264432)"><g><path d="M 59.46875 -66.5 L 74.484375 -66.5 C 75.179688 -66.5 75.78125 -66.242188 76.28125 -65.734375 C 76.789062 -65.234375 77.046875 -64.632812 77.046875 -63.9375 L 77.046875 -2.5625 C 77.046875 -1.863281 76.789062 -1.257812 76.28125 -0.75 C 75.78125 -0.25 75.179688 0 74.484375 0 L 57.28125 0 C 56.582031 0 55.976562 -0.25 55.46875 -0.75 C 54.96875 -1.257812 54.71875 -1.863281 54.71875 -2.5625 L 54.71875 -28.59375 L 48.453125 -18.328125 C 47.441406 -16.742188 46.269531 -15.953125 44.9375 -15.953125 L 38.28125 -15.953125 C 36.957031 -15.953125 35.785156 -16.742188 34.765625 -18.328125 L 28.5 -28.59375 L 28.5 -2.5625 C 28.5 -1.863281 28.242188 -1.257812 27.734375 -0.75 C 27.234375 -0.25 26.632812 0 25.9375 0 L 8.734375 0 C 8.035156 0 7.429688 -0.25 6.921875 -0.75 C 6.421875 -1.257812 6.171875 -1.863281 6.171875 -2.5625 L 6.171875 -63.9375 C 6.171875 -64.632812 6.421875 -65.234375 6.921875 -65.734375 C 7.429688 -66.242188 8.035156 -66.5 8.734375 -66.5 L 23.75 -66.5 C 25.519531 -66.5 26.878906 -65.644531 27.828125 -63.9375 L 41.609375 -41.140625 L 55.390625 -63.9375 C 56.335938 -65.644531 57.695312 -66.5 59.46875 -66.5 Z M 59.46875 -66.5 "/></g></g></g><g fill="#fffcf6" fill-opacity="1"><g transform="translate(1014.143229, 441.264432)"><g><path d="M 28.96875 -18.53125 L 58.234375 -18.53125 C 58.929688 -18.53125 59.53125 -18.273438 60.03125 -17.765625 C 60.539062 -17.253906 60.796875 -16.648438 60.796875 -15.953125 L 60.796875 -2.5625 C 60.796875 -1.863281 60.539062 -1.257812 60.03125 -0.75 C 59.53125 -0.25 58.929688 0 58.234375 0 L 8.734375 0 C 8.035156 0 7.429688 -0.25 6.921875 -0.75 C 6.421875 -1.257812 6.171875 -1.863281 6.171875 -2.5625 L 6.171875 -63.9375 C 6.171875 -64.632812 6.421875 -65.234375 6.921875 -65.734375 C 7.429688 -66.242188 8.035156 -66.5 8.734375 -66.5 L 57.46875 -66.5 C 58.164062 -66.5 58.769531 -66.242188 59.28125 -65.734375 C 59.789062 -65.234375 60.046875 -64.632812 60.046875 -63.9375 L 60.046875 -50.546875 C 60.046875 -49.847656 59.789062 -49.242188 59.28125 -48.734375 C 58.769531 -48.222656 58.164062 -47.96875 57.46875 -47.96875 L 28.96875 -47.96875 L 28.96875 -41.984375 L 55.390625 -41.984375 C 56.085938 -41.984375 56.6875 -41.726562 57.1875 -41.21875 C 57.695312 -40.71875 57.953125 -40.117188 57.953125 -39.421875 L 57.953125 -27.078125 C 57.953125 -26.378906 57.695312 -25.773438 57.1875 -25.265625 C 56.6875 -24.765625 56.085938 -24.515625 55.390625 -24.515625 L 28.96875 -24.515625 Z M 28.96875 -18.53125 "/></g></g></g><g fill="#fffcf6" fill-opacity="1"><g transform="translate(1080.162818, 441.264432)"><g><path d="M 46.265625 -66.5 L 63.453125 -66.5 C 64.148438 -66.5 64.753906 -66.242188 65.265625 -65.734375 C 65.773438 -65.234375 66.03125 -64.632812 66.03125 -63.9375 L 66.03125 -2.5625 C 66.03125 -1.863281 65.773438 -1.257812 65.265625 -0.75 C 64.753906 -0.25 64.148438 0 63.453125 0 L 48.453125 0 C 46.804688 0 45.507812 -0.726562 44.5625 -2.1875 L 28.5 -26.40625 L 28.5 -2.5625 C 28.5 -1.863281 28.242188 -1.257812 27.734375 -0.75 C 27.234375 -0.25 26.632812 0 25.9375 0 L 8.734375 0 C 8.035156 0 7.429688 -0.25 6.921875 -0.75 C 6.421875 -1.257812 6.171875 -1.863281 6.171875 -2.5625 L 6.171875 -63.9375 C 6.171875 -64.632812 6.421875 -65.234375 6.921875 -65.734375 C 7.429688 -66.242188 8.035156 -66.5 8.734375 -66.5 L 23.75 -66.5 C 25.519531 -66.5 26.816406 -65.769531 27.640625 -64.3125 L 43.703125 -38 L 43.703125 -63.9375 C 43.703125 -64.632812 43.953125 -65.234375 44.453125 -65.734375 C 44.960938 -66.242188 45.566406 -66.5 46.265625 -66.5 Z M 46.265625 -66.5 "/></g></g></g><g fill="#fffcf6" fill-opacity="1"><g transform="translate(1152.356906, 441.264432)"><g><path d="M 5.421875 -66.5 L 61.078125 -66.5 C 61.773438 -66.5 62.378906 -66.242188 62.890625 -65.734375 C 63.398438 -65.234375 63.65625 -64.632812 63.65625 -63.9375 L 63.65625 -48.640625 C 63.65625 -47.941406 63.398438 -47.335938 62.890625 -46.828125 C 62.378906 -46.328125 61.773438 -46.078125 61.078125 -46.078125 L 45.3125 -46.078125 L 45.3125 -2.5625 C 45.3125 -1.863281 45.054688 -1.257812 44.546875 -0.75 C 44.046875 -0.25 43.445312 0 42.75 0 L 23.75 0 C 23.050781 0 22.445312 -0.25 21.9375 -0.75 C 21.4375 -1.257812 21.1875 -1.863281 21.1875 -2.5625 L 21.1875 -46.078125 L 5.421875 -46.078125 C 4.722656 -46.078125 4.117188 -46.328125 3.609375 -46.828125 C 3.097656 -47.335938 2.84375 -47.941406 2.84375 -48.640625 L 2.84375 -63.9375 C 2.84375 -64.632812 3.097656 -65.234375 3.609375 -65.734375 C 4.117188 -66.242188 4.722656 -66.5 5.421875 -66.5 Z M 5.421875 -66.5 "/></g></g></g><g fill="#fffcf6" fill-opacity="1"><g transform="translate(128.439317, 672.707626)"><g><path d="M 59.46875 -66.5 L 74.484375 -66.5 C 75.179688 -66.5 75.78125 -66.242188 76.28125 -65.734375 C 76.789062 -65.234375 77.046875 -64.632812 77.046875 -63.9375 L 77.046875 -2.5625 C 77.046875 -1.863281 76.789062 -1.257812 76.28125 -0.75 C 75.78125 -0.25 75.179688 0 74.484375 0 L 57.28125 0 C 56.582031 0 55.976562 -0.25 55.46875 -0.75 C 54.96875 -1.257812 54.71875 -1.863281 54.71875 -2.5625 L 54.71875 -28.59375 L 48.453125 -18.328125 C 47.441406 -16.742188 46.269531 -15.953125 44.9375 -15.953125 L 38.28125 -15.953125 C 36.957031 -15.953125 35.785156 -16.742188 34.765625 -18.328125 L 28.5 -28.59375 L 28.5 -2.5625 C 28.5 -1.863281 28.242188 -1.257812 27.734375 -0.75 C 27.234375 -0.25 26.632812 0 25.9375 0 L 8.734375 0 C 8.035156 0 7.429688 -0.25 6.921875 -0.75 C 6.421875 -1.257812 6.171875 -1.863281 6.171875 -2.5625 L 6.171875 -63.9375 C 6.171875 -64.632812 6.421875 -65.234375 6.921875 -65.734375 C 7.429688 -66.242188 8.035156 -66.5 8.734375 -66.5 L 23.75 -66.5 C 25.519531 -66.5 26.878906 -65.644531 27.828125 -63.9375 L 41.609375 -41.140625 L 55.390625 -63.9375 C 56.335938 -65.644531 57.695312 -66.5 59.46875 -66.5 Z M 59.46875 -66.5 "/></g></g></g><g fill="#fffcf6" fill-opacity="1"><g transform="translate(211.652497, 672.707626)"><g><path d="M 12.96875 -60.421875 C 18.757812 -65.109375 26.4375 -67.453125 36 -67.453125 C 45.5625 -67.453125 53.238281 -65.09375 59.03125 -60.375 C 64.832031 -55.65625 67.734375 -49.019531 67.734375 -40.46875 L 67.734375 -25.65625 C 67.734375 -16.976562 64.867188 -10.375 59.140625 -5.84375 C 53.410156 -1.3125 45.695312 0.953125 36 0.953125 C 26.3125 0.953125 18.601562 -1.3125 12.875 -5.84375 C 7.144531 -10.375 4.28125 -16.976562 4.28125 -25.65625 L 4.28125 -40.46875 C 4.28125 -49.082031 7.175781 -55.734375 12.96875 -60.421875 Z M 30.875 -19.46875 C 32.144531 -18.207031 33.851562 -17.578125 36 -17.578125 C 38.15625 -17.578125 39.863281 -18.207031 41.125 -19.46875 C 42.394531 -20.738281 43.03125 -22.671875 43.03125 -25.265625 L 43.03125 -41.234375 C 43.03125 -43.765625 42.394531 -45.675781 41.125 -46.96875 C 39.863281 -48.269531 38.15625 -48.921875 36 -48.921875 C 33.851562 -48.921875 32.144531 -48.269531 30.875 -46.96875 C 29.601562 -45.675781 28.96875 -43.765625 28.96875 -41.234375 L 28.96875 -25.265625 C 28.96875 -22.671875 29.601562 -20.738281 30.875 -19.46875 Z M 30.875 -19.46875 "/></g></g></g><g fill="#fffcf6" fill-opacity="1"><g transform="translate(283.656602, 672.707626)"><g><path d="M 8.734375 -66.5 L 36.09375 -66.5 C 45.34375 -66.5 52.957031 -64.203125 58.9375 -59.609375 C 64.925781 -55.015625 67.921875 -48.601562 67.921875 -40.375 L 67.921875 -26.21875 C 67.921875 -17.601562 65.003906 -11.078125 59.171875 -6.640625 C 53.347656 -2.210938 45.6875 0 36.1875 0 L 8.734375 0 C 8.035156 0 7.429688 -0.25 6.921875 -0.75 C 6.421875 -1.257812 6.171875 -1.863281 6.171875 -2.5625 L 6.171875 -63.9375 C 6.171875 -64.632812 6.421875 -65.234375 6.921875 -65.734375 C 7.429688 -66.242188 8.035156 -66.5 8.734375 -66.5 Z M 29.921875 -47.96875 L 29.921875 -18.53125 L 36.09375 -18.53125 C 38.25 -18.53125 39.972656 -19.175781 41.265625 -20.46875 C 42.566406 -21.769531 43.21875 -23.6875 43.21875 -26.21875 L 43.21875 -40.375 C 43.21875 -45.4375 40.84375 -47.96875 36.09375 -47.96875 Z M 29.921875 -47.96875 "/></g></g></g><g fill="#fffcf6" fill-opacity="1"><g transform="translate(355.85069, 672.707626)"><g><path d="M 28.125 0 L 8.734375 0 C 8.035156 0 7.429688 -0.25 6.921875 -0.75 C 6.421875 -1.257812 6.171875 -1.863281 6.171875 -2.5625 L 6.171875 -63.9375 C 6.171875 -64.632812 6.421875 -65.234375 6.921875 -65.734375 C 7.429688 -66.242188 8.035156 -66.5 8.734375 -66.5 L 28.125 -66.5 C 28.820312 -66.5 29.421875 -66.242188 29.921875 -65.734375 C 30.429688 -65.234375 30.6875 -64.632812 30.6875 -63.9375 L 30.6875 -2.5625 C 30.6875 -1.863281 30.429688 -1.257812 29.921875 -0.75 C 29.421875 -0.25 28.820312 0 28.125 0 Z M 28.125 0 "/></g></g></g><g fill="#fffcf6" fill-opacity="1"><g transform="translate(392.707667, 672.707626)"><g><path d="M 8.734375 -66.5 L 56.625 -66.5 C 57.320312 -66.5 57.921875 -66.242188 58.421875 -65.734375 C 58.929688 -65.234375 59.1875 -64.632812 59.1875 -63.9375 L 59.1875 -49.5 C 59.1875 -48.800781 58.929688 -48.195312 58.421875 -47.6875 C 57.921875 -47.1875 57.320312 -46.9375 56.625 -46.9375 L 29.453125 -46.9375 L 29.453125 -39.90625 L 54.71875 -39.90625 C 55.414062 -39.90625 56.015625 -39.648438 56.515625 -39.140625 C 57.023438 -38.628906 57.28125 -38.023438 57.28125 -37.328125 L 57.28125 -22.984375 C 57.28125 -22.285156 57.023438 -21.679688 56.515625 -21.171875 C 56.015625 -20.671875 55.414062 -20.421875 54.71875 -20.421875 L 29.453125 -20.421875 L 29.453125 -2.5625 C 29.453125 -1.863281 29.195312 -1.257812 28.6875 -0.75 C 28.1875 -0.25 27.585938 0 26.890625 0 L 8.734375 0 C 8.035156 0 7.429688 -0.25 6.921875 -0.75 C 6.421875 -1.257812 6.171875 -1.863281 6.171875 -2.5625 L 6.171875 -63.9375 C 6.171875 -64.632812 6.421875 -65.234375 6.921875 -65.734375 C 7.429688 -66.242188 8.035156 -66.5 8.734375 -66.5 Z M 8.734375 -66.5 "/></g></g></g><g fill="#fffcf6" fill-opacity="1"><g transform="translate(455.687499, 672.707626)"><g><path d="M 28.125 0 L 8.734375 0 C 8.035156 0 7.429688 -0.25 6.921875 -0.75 C 6.421875 -1.257812 6.171875 -1.863281 6.171875 -2.5625 L 6.171875 -63.9375 C 6.171875 -64.632812 6.421875 -65.234375 6.921875 -65.734375 C 7.429688 -66.242188 8.035156 -66.5 8.734375 -66.5 L 28.125 -66.5 C 28.820312 -66.5 29.421875 -66.242188 29.921875 -65.734375 C 30.429688 -65.234375 30.6875 -64.632812 30.6875 -63.9375 L 30.6875 -2.5625 C 30.6875 -1.863281 30.429688 -1.257812 29.921875 -0.75 C 29.421875 -0.25 28.820312 0 28.125 0 Z M 28.125 0 "/></g></g></g><g fill="#fffcf6" fill-opacity="1"><g transform="translate(492.544477, 672.707626)"><g><path d="M 28.96875 -18.53125 L 58.234375 -18.53125 C 58.929688 -18.53125 59.53125 -18.273438 60.03125 -17.765625 C 60.539062 -17.253906 60.796875 -16.648438 60.796875 -15.953125 L 60.796875 -2.5625 C 60.796875 -1.863281 60.539062 -1.257812 60.03125 -0.75 C 59.53125 -0.25 58.929688 0 58.234375 0 L 8.734375 0 C 8.035156 0 7.429688 -0.25 6.921875 -0.75 C 6.421875 -1.257812 6.171875 -1.863281 6.171875 -2.5625 L 6.171875 -63.9375 C 6.171875 -64.632812 6.421875 -65.234375 6.921875 -65.734375 C 7.429688 -66.242188 8.035156 -66.5 8.734375 -66.5 L 57.46875 -66.5 C 58.164062 -66.5 58.769531 -66.242188 59.28125 -65.734375 C 59.789062 -65.234375 60.046875 -64.632812 60.046875 -63.9375 L 60.046875 -50.546875 C 60.046875 -49.847656 59.789062 -49.242188 59.28125 -48.734375 C 58.769531 -48.222656 58.164062 -47.96875 57.46875 -47.96875 L 28.96875 -47.96875 L 28.96875 -41.984375 L 55.390625 -41.984375 C 56.085938 -41.984375 56.6875 -41.726562 57.1875 -41.21875 C 57.695312 -40.71875 57.953125 -40.117188 57.953125 -39.421875 L 57.953125 -27.078125 C 57.953125 -26.378906 57.695312 -25.773438 57.1875 -25.265625 C 56.6875 -24.765625 56.085938 -24.515625 55.390625 -24.515625 L 28.96875 -24.515625 Z M 28.96875 -18.53125 "/></g></g></g><g fill="#fffcf6" fill-opacity="1"><g transform="translate(558.564066, 672.707626)"><g><path d="M 67.359375 -3.140625 C 67.546875 -2.753906 67.640625 -2.335938 67.640625 -1.890625 C 67.640625 -1.453125 67.429688 -1.023438 67.015625 -0.609375 C 66.609375 -0.203125 66.117188 0 65.546875 0 L 46.078125 0 C 44.109375 0 42.742188 -0.851562 41.984375 -2.5625 L 33.8125 -20.703125 L 29.921875 -20.703125 L 29.921875 -2.5625 C 29.921875 -1.863281 29.664062 -1.257812 29.15625 -0.75 C 28.65625 -0.25 28.054688 0 27.359375 0 L 8.734375 0 C 8.035156 0 7.429688 -0.25 6.921875 -0.75 C 6.421875 -1.257812 6.171875 -1.863281 6.171875 -2.5625 L 6.171875 -63.9375 C 6.171875 -64.632812 6.421875 -65.234375 6.921875 -65.734375 C 7.429688 -66.242188 8.035156 -66.5 8.734375 -66.5 L 36.859375 -66.5 C 45.984375 -66.5 53.109375 -64.457031 58.234375 -60.375 C 63.367188 -56.289062 65.9375 -50.429688 65.9375 -42.796875 C 65.9375 -35.160156 62.515625 -29.160156 55.671875 -24.796875 Z M 29.921875 -48.828125 L 29.921875 -38.765625 L 36.859375 -38.765625 C 38.253906 -38.765625 39.332031 -39.222656 40.09375 -40.140625 C 40.851562 -41.054688 41.234375 -42.207031 41.234375 -43.59375 C 41.234375 -44.988281 40.867188 -46.207031 40.140625 -47.25 C 39.410156 -48.300781 38.316406 -48.828125 36.859375 -48.828125 Z M 29.921875 -48.828125 "/></g></g></g></svg>